<svg xmlns="http://www.w3.org/2000/svg" viewBox="0 0 244.75388 146.28343"><title>new</title><path d="M148.69429,98.84861v-1.8007q.0675.00285.1348.0029,2.02,0,2.8135-2.6553l1.8476.2793a5.62394,5.62394,0,0,1-1.6728,3.124,4.408,4.408,0,0,1-3.001,1.0518c-.041,0-.083-.001-.1221-.002Zm0-6.1933h0v-1.8037h2.9561a4.93645,4.93645,0,0,0-.7139-2.5049,2.62334,2.62334,0,0,0-2.207-1.2061h-.0352v-1.8022h.0469a4.22233,4.22233,0,0,1,3.4326,1.727,7.89118,7.89118,0,0,1,1.376,5.0039l-.00879.586Zm7.6016,2.0439h0l1.7783-.3408a3.18642,3.18642,0,0,0,.8633,2.0273,3.04354,3.04354,0,0,0,3.6826.0879,1.89267,1.89267,0,0,0,.6406-1.4668,1.42944,1.42944,0,0,0-.55069-1.1963,6.92835,6.92835,0,0,0-1.82331-.72851,13.28858,13.28858,0,0,1-2.7998-1.09659,3.06941,3.06941,0,0,1-1.0967-1.2042,3.69878,3.69878,0,0,1-.3867-1.7158,3.60817,3.60817,0,0,1,1.0557-2.69241,4.02364,4.02364,0,0,1,2.9365-1.03459,4.78906,4.78906,0,0,1,2.0732.4282,3.297,3.297,0,0,1,1.37311,1.1426,5,5,0,0,1,.65529,2.0556l-1.7539.295a2.10313,2.10313,0,0,0-2.3008-2.1192,2.72539,2.72539,0,0,0-1.7422.4698,1.4833,1.4833,0,0,0-.56739,1.1972,1.35188,1.35188,0,0,0,.543,1.1338,9.68476,9.68476,0,0,0,1.94919.7773,15.48565,15.48565,0,0,1,2.8877,1.1387,2.89378,2.89378,0,0,1,1.0215,1.1465,3.81973,3.81973,0,0,1,.3662,1.7207,4.00471,4.00471,0,0,1-1.1758,2.9951,4.41607,4.41607,0,0,1-3.209,1.1426q-3.813,0-4.4199-4.1631Zm-7.6016-9.3608h0v1.8022a2.621,2.621,0,0,0-2.0224,1.0069,4.36128,4.36128,0,0,0-.9336,2.7041h2.956v1.8037H145.626a5.61112,5.61112,0,0,0,1.00969,3.2861,2.75081,2.75081,0,0,0,2.0586,1.1065v1.8007a4.46688,4.46688,0,0,1-3.52629-1.706,7.67342,7.67342,0,0,1-1.39161-4.9365,8.03606,8.03606,0,0,1,1.4043-5.1065,4.37376,4.37376,0,0,1,3.5136-1.7612Zm-18.6045,18.4663h0v-1.8193a2.75946,2.75946,0,0,0,1.6495-.5596,2.923,2.923,0,0,0,.956-1.6865,16.24957,16.24957,0,0,0,.15771-2.8711,4.16015,4.16015,0,0,1-1.31251,1.2627,3.12017,3.12017,0,0,1-1.4507.4248v-1.8125a2.51573,2.51573,0,0,0,2.05721-1.1426,6.15449,6.15449,0,0,0,.85059-3.6397,6.07946,6.07946,0,0,0-.876-3.6191,2.59018,2.59018,0,0,0-2.0318-1.1865v-1.813a3.211,3.211,0,0,1,1.5503.4609,4.25546,4.25546,0,0,1,1.3706,1.3882v-1.5581h1.6534v11.1724a13.16242,13.16242,0,0,1-.4854,4.2558,4.12333,4.12333,0,0,1-1.5923,2.0059,4.61281,4.61281,0,0,1-2.4966.7373Zm8.5264-20.5693h0v-2.522h1.7905v2.522Zm0,15.3242h0V85.63331h1.7905v12.9263Zm-8.5264-13.2173h0v1.813c-.0327-.001-.0669-.002-.0996-.002a2.40872,2.40872,0,0,0-1.9648,1.1885,6.08238,6.08238,0,0,0-.8442,3.5234,6.44541,6.44541,0,0,0,.8383,3.711,2.46955,2.46955,0,0,0,2.0581,1.167h.0122v1.8125c-.0551.0019-.1137.0039-.1699.0039a3.84352,3.84352,0,0,1-3.1543-1.6084,7.88076,7.88076,0,0,1-1.4375-4.95221,9.60453,9.60453,0,0,1,.6358-3.64059,5.01451,5.01451,0,0,1,1.6616-2.2891,3.89668,3.89668,0,0,1,2.3057-.7309c.0537,0,.1069.001.1586.0039Zm0,16.6431h0v1.8193c-.0561.0019-.1137.0029-.1699.0029a4.2862,4.2862,0,0,1-3.1665-1.1103,4.04275,4.04275,0,0,1-1.0722-3.0664l1.7534.3164a2.253,2.253,0,0,0,.73141,1.541,2.57919,2.57919,0,0,0,1.69089.5019c.08011,0,.1568-.0009.2329-.0048ZM117.728,98.85061h0v-1.8008l.04639.001a2.63784,2.63784,0,0,0,2.1729-1.2383,8.03923,8.03923,0,0,0-.0039-7.43651,2.74256,2.74256,0,0,0-2.21539-1.22169v-1.8159h.00049a4.43147,4.43147,0,0,1,3.5401,1.7065,7.45789,7.45789,0,0,1,1.4252,4.916,8.04413,8.04413,0,0,1-1.3999,5.1856,4.40931,4.40931,0,0,1-3.5654,1.7041Zm0-13.5122h0v1.8159l-.04931-.001a2.65159,2.65159,0,0,0-2.1811,1.2305,8.10618,8.10618,0,0,0,.0127,7.4414,2.73616,2.73616,0,0,0,2.21771,1.2246v1.8008a4.42185,4.42185,0,0,1-3.54781-1.708,7.74745,7.74745,0,0,1-1.4204-5.0489,7.7658,7.7658,0,0,1,1.40821-5.0488,4.412,4.412,0,0,1,3.56-1.7065ZM99.36769,98.85061h0v-1.8008l.0454.001a2.63491,2.63491,0,0,0,2.1723-1.2383A8.03262,8.03262,0,0,0,101.582,88.376a2.74207,2.74207,0,0,0-2.21431-1.22169v-1.8159h0a4.43018,4.43018,0,0,1,3.5395,1.7065,7.45734,7.45734,0,0,1,1.4253,4.916,8.044,8.044,0,0,1-1.4004,5.1856,4.40809,4.40809,0,0,1-3.5644,1.7041Zm8.2475-.291h0V80.71341h1.7862v17.8462Zm-8.2475-13.2212h0v1.8159l-.0498-.001a2.65406,2.65406,0,0,0-2.1822,1.2305,8.11694,8.11694,0,0,0,.0122,7.4414,2.741,2.741,0,0,0,2.2198,1.2246v1.8008a4.422,4.422,0,0,1-3.5489-1.708,7.748,7.748,0,0,1-1.4213-5.0489,7.77162,7.77162,0,0,1,1.4087-5.0488,4.41353,4.41353,0,0,1,3.5615-1.7065Zm-49.2232,13.5102h0v-1.8007c.044.0019.0899.0029.1343.0029q2.02,0,2.8135-2.6553l1.8491.2793a5.63124,5.63124,0,0,1-1.6748,3.124,4.40365,4.40365,0,0,1-3,1.0518c-.041,0-.0815-.001-.1221-.002Zm0-6.1933h0v-1.8037h2.9556a4.93119,4.93119,0,0,0-.7144-2.5049,2.61992,2.61992,0,0,0-2.206-1.2061h-.0352v-1.8022h.0474a4.22143,4.22143,0,0,1,3.43211,1.727,7.88817,7.88817,0,0,1,1.37549,5.0039l-.0083.586Zm15.2344,1.167h0l1.76611.2822a5.89368,5.89368,0,0,1-1.52931,3.5283,4.00354,4.00354,0,0,1-2.938,1.2178,4.18128,4.18128,0,0,1-3.42769-1.708,8.07155,8.07155,0,0,1-1.34571-5.0615,7.948,7.948,0,0,1,1.3584-5.0567,4.289,4.289,0,0,1,3.48631-1.686,3.97054,3.97054,0,0,1,2.771,1.022,5.04525,5.04525,0,0,1,1.44189,3.0693l-1.7412.3291a3.77851,3.77851,0,0,0-.88869-1.9649,2.03193,2.03193,0,0,0-1.521-.6533,2.63072,2.63072,0,0,0-2.19771,1.1768,6.33191,6.33191,0,0,0-.8687,3.7305,6.77179,6.77179,0,0,0,.835,3.8222,2.51689,2.51689,0,0,0,2.1352,1.1807,2.29012,2.29012,0,0,0,1.7456-.7842,4.29386,4.29386,0,0,0,.9185-2.4443Zm4.4995,4.7373h0V80.71341h1.791v6.4028a4.50605,4.50605,0,0,1,1.4292-1.334,3.57418,3.57418,0,0,1,1.7618-.4438,3.43879,3.43879,0,0,1,2.6713,1.07959q.9801,1.07221.9815,3.94721v8.1944h-1.7915v-8.1944a3.82191,3.82191,0,0,0-.5982-2.4091,2.00109,2.00109,0,0,0-1.6406-.7325,2.56,2.56,0,0,0-1.9907.9395,5.10279,5.10279,0,0,0-.8228,3.3242v7.0723Zm12.5943,0h0V85.63331h1.6201v1.8364a4.22609,4.22609,0,0,1,1.4297-1.6001,3.59393,3.59393,0,0,1,1.9443-.5312,3.7,3.7,0,0,1,1.57521.3359,3.24332,3.24332,0,0,1,1.16749.8775,3.54036,3.54036,0,0,1,.665,1.4043,11.79847,11.79847,0,0,1,.2202,2.6552v7.9483H89.291v-7.8662a6.37853,6.37853,0,0,0-.24511-2.0811,2.02122,2.02122,0,0,0-1.9575-1.376,2.49987,2.49987,0,0,0-2.0562.9639,5.39679,5.39679,0,0,0-.769,3.29879v7.06061Zm-44.0723,0h0V82.82031h-4.8198v-2.1069h11.6006v2.1069h-4.8448v15.7393Zm11.7441-13.2212h0v1.8022a2.62,2.62,0,0,0-2.0219,1.0069,4.36767,4.36767,0,0,0-.93459,2.7041h2.95649v1.8037h-3.0688a5.60763,5.60763,0,0,0,1.0097,3.2861,2.75345,2.75345,0,0,0,2.0591,1.1065v1.8007a4.4653,4.4653,0,0,1-3.5254-1.706,7.66816,7.66816,0,0,1-1.3925-4.9365,8.03665,8.03665,0,0,1,1.4047-5.1065,4.37232,4.37232,0,0,1,3.5132-1.7612Z" transform="translate(-22.88869 -9.55908)" fill="#fff"/><path d="M110.96,55.23881h0l13.07709-.814a9.1867,9.1867,0,0,0,1.2861,4.8291,6.55734,6.55734,0,0,0,5.794,2.6777,7.18862,7.18862,0,0,0,4.6313-1.3691,4.57314,4.57314,0,0,0,1.8609-3.1821,3.69179,3.69179,0,0,0-1.2261-3.0786c-.9277-.90681-3.1772-1.7613-6.7715-2.564q-8.80665-2.02365-12.3369-5.36381a9.893,9.893,0,0,1-3.0952-8.53659,12.57226,12.57226,0,0,1,2.5557-6.4453A14.94075,14.94075,0,0,1,123.104,26.625a29.03138,29.03138,0,0,1,11.02779-1.73q8.4801,0,12.6485,3.15091,4.16595,3.15014,4.3945,10.0283l-12.9492.752a6.25779,6.25779,0,0,0-1.773-4.3457,6.45379,6.45379,0,0,0-4.4087-1.3487,5.83594,5.83594,0,0,0-3.6845,1.0088,3.43645,3.43645,0,0,0-1.4248,2.4615,2.24114,2.24114,0,0,0,.8183,1.8945c.5962.58639,2.0713,1.1221,4.4468,1.6269q8.784,1.93,12.478,3.9126a11.03038,11.03038,0,0,1,6.3848,11.4488,15.19527,15.19527,0,0,1-3.06149,7.8359,16.6424,16.6424,0,0,1-7.06791,5.4478,27.82019,27.82019,0,0,1-10.813,1.8535q-11.2734,0-15.2295-4.3452A15.617,15.617,0,0,1,110.96,55.23881Zm48.89059-29.5923h13.6631L172.124,41.12211h14.93949l1.3896-15.4756h13.7246L198.208,69.87011H184.48339l1.6055-17.8852h-14.9395l-1.6055,17.8852h-13.663l3.9697-44.2236Zm-94.1812,0h5.3345l-5.3345,7.0307v-7.0307Zm20.1133,36.9233v-9.5654h4.875l-3.4634-15.898-1.4116,3.5694V25.64651h10.0381L108.48,69.87011H94.17819l-1.5171-7.3003Zm0-36.9233h-4.8603l-15.253,32.7641v11.4595h8.627l2.7969-7.3003h8.6894v-9.5654h-4.8755l4.8755-12.3286V25.64651Zm-62.894,0h15.1767l7.5874,14.9302,10.2671-14.9302h9.7495v7.0307L51.502,51.34621l-1.66221,18.5239H36.14549l1.6626-18.5239-14.9194-25.6997Zm42.7807,32.7641h0l-5.3349,11.4595h5.3349V58.41061Z" transform="translate(-22.88869 -9.55908)" fill="#fff"/><path d="M95.82,25.60167l12.66,44.23H94.18l-1.52-7.3H85.78v-9.57h4.88l-3.47-15.9-1.41,3.57v-15.03Zm-14.91,27.36,4.87-12.33v-15.03H80.92l-15.25,32.77v11.46H74.3l2.79-7.3h8.69v-9.57Zm-20.58,16.87h5.34v-11.46Z" transform="translate(-22.88869 -9.55908)" fill="#fff"/><path d="M163.19429,16.60791c29.6739.7564,66.9063,6.7822,68.88971,27.5464,3.61129,37.8603-90.81251,70.42869-144.86571,81.79,49.706-6.8154,104.4028-21.0879,147.69971-47.7099,19.11519-11.7549,35.248-30.0523,25.22949-44.3032-15.31349-21.78621-74.085-18.649-96.9532-17.3233Z" transform="translate(-22.88869 -9.55908)" fill="#fff" fill-rule="evenodd"/><path d="M255.2041,15.25439a5.69922,5.69922,0,0,1,11.39844,0,5.69922,5.69922,0,0,1-11.39844,0Zm10.46973,0a4.77051,4.77051,0,1,0-8.14258,3.376,4.76856,4.76856,0,0,0,8.14258-3.376Zm-2.99219,3.439-1.78223-3.0166h-1.01465v3.0166h-1.00488v-7.022h1.7998q2.53418,0,2.53516,1.94336a1.94774,1.94774,0,0,1-1.36133,1.91016l1.91895,3.16846Zm-2.79687-6.16016v2.33252q.12744.01685.65918.0166a2.40675,2.40675,0,0,0,1.31836-.249,1.11746,1.11746,0,0,0,.33789-.95068q0-1.158-1.52051-1.15771h-.39746Z" transform="translate(-22.88869 -9.55908)" fill="#fff"/><path d="M31.85194,151.57374h-2.833l-.5253-12.134-2.30773,12.134H23.49142l3.03114-14.52079h4.25929l.44574,10.17193,4.95266-10.17193h4.30882l-3.04062,14.52079h-2.724L37.587,139.52928Z" transform="translate(-22.88869 -9.55908)" fill="#fff"/><path d="M40.59339,147.20591a6.49483,6.49483,0,0,1,1.64913-4.66077,5.69807,5.69807,0,0,1,4.33358-1.7387,4.96666,4.96666,0,0,1,3.63547,1.28348,4.614,4.614,0,0,1,1.30771,3.45106,6.47786,6.47786,0,0,1-1.63438,4.41841,5.534,5.534,0,0,1-4.37837,1.862,5.65391,5.65391,0,0,1-2.63492-.59432,3.87759,3.87759,0,0,1-1.71341-1.68391A5.00306,5.00306,0,0,1,40.59339,147.20591Zm8.10287-2.03059a2.22814,2.22814,0,0,0-.58958-1.61963,2.02027,2.02027,0,0,0-1.52057-.60907,2.54893,2.54893,0,0,0-1.63438.569,3.66607,3.66607,0,0,0-1.10908,1.6544,5.84976,5.84976,0,0,0-.39621,1.99582,2.53406,2.53406,0,0,0,.61381,1.79244,2.016,2.016,0,0,0,1.54534.66387,2.41148,2.41148,0,0,0,1.961-1A5.35667,5.35667,0,0,0,48.69627,145.17532Z" transform="translate(-22.88869 -9.55908)" fill="#fff"/><path d="M54.40658,141.05407h2.65494l-.42625,2.04113q1.4858-2.28876,3.21923-2.28876a3.29581,3.29581,0,0,1,1.31772.3077l-1.08959,2.32775a2.40943,2.40943,0,0,0-.82246-.1391,2.53352,2.53352,0,0,0-1.49054.55428,3.7209,3.7209,0,0,0-1.1839,1.48158,14.75724,14.75724,0,0,0-.842,2.93682l-.69337,3.29826H52.20791Z" transform="translate(-22.88869 -9.55908)" fill="#fff"/><path d="M70.30042,147.19537H63.16858c-.00685.11275-.01.19811-.01.25817a2.38578,2.38578,0,0,0,.59906,1.69339,1.9228,1.9228,0,0,0,1.461.64385,2.43423,2.43423,0,0,0,2.2092-1.46578l2.54535.42572a5.35982,5.35982,0,0,1-1.98581,2.30352,5.20533,5.20533,0,0,1-2.78824.76714,4.63341,4.63341,0,0,1-3.44737-1.34249,4.83023,4.83023,0,0,1-1.32721-3.55117,6.46208,6.46208,0,0,1,1.19865-3.84306,5.3979,5.3979,0,0,1,4.66551-2.27823,4.04594,4.04594,0,0,1,3.07065,1.19391,4.648,4.648,0,0,1,1.13911,3.34252A7.94517,7.94517,0,0,1,70.30042,147.19537Zm-2.3973-1.73343c.00685-.1254.01-.22129.01-.28662a2.553,2.553,0,0,0-.52477-1.75345,1.7981,1.7981,0,0,0-1.40677-.58484,2.23429,2.23429,0,0,0-1.58011.66387,3.54034,3.54034,0,0,0-.94575,1.961Z" transform="translate(-22.88869 -9.55908)" fill="#fff"/><path d="M77.28367,143.16369l.43573-2.10962h1.38675l.34669-1.68391,3.25927-1.961-.76292,3.64495h1.73343l-.43573,2.10962H81.50345l-.921,4.40787a13.64354,13.64354,0,0,0-.24763,1.36778.64538.64538,0,0,0,.20759.51,1.161,1.161,0,0,0,.75291.18335q.1881,0,.941-.06955l-.44574,2.10962a7.55748,7.55748,0,0,1-1.50529.14858,3.35691,3.35691,0,0,1-2.18918-.57957,1.99653,1.99653,0,0,1-.68336-1.60909,15.02192,15.02192,0,0,1,.36618-2.23924l.88147-4.22979Z" transform="translate(-22.88869 -9.55908)" fill="#fff"/><path d="M86.00563,151.57374H83.16312l3.04062-14.52079h2.843l-1.08959,5.16974a7.48072,7.48072,0,0,1,1.793-1.08432,4.76783,4.76783,0,0,1,1.783-.33193,2.75014,2.75014,0,0,1,2.02058.73342,2.5786,2.5786,0,0,1,.7429,1.921,10.74142,10.74142,0,0,1-.27714,1.9621l-1.28769,6.15079h-2.843l1.3172-6.26986a8.88152,8.88152,0,0,0,.20812-1.30771,1.12109,1.12109,0,0,0-.32667-.84194,1.22938,1.22938,0,0,0-.89148-.31719,2.23607,2.23607,0,0,0-1.36725.49527,4.29789,4.29789,0,0,0-1.29718,1.60487,14.32006,14.32006,0,0,0-.65386,2.46685Z" transform="translate(-22.88869 -9.55908)" fill="#fff"/><path d="M99.32408,144.0362l-2.77349-.23815a4.17357,4.17357,0,0,1,1.65914-2.19919,5.55,5.55,0,0,1,3.13493-.79243,4.595,4.595,0,0,1,3.0011.81772,2.51671,2.51671,0,0,1,.971,1.99582,6.55337,6.55337,0,0,1-.0843,1.01055q-.08456.53426-.58958,2.81248a14.45089,14.45089,0,0,0-.41571,2.63545,5.42282,5.42282,0,0,0,.23762,1.49528h-2.76348a5.41948,5.41948,0,0,1-.20812-1.18864,4.36052,4.36052,0,0,1-1.43627,1.06535,3.9146,3.9146,0,0,1-1.63438.37092,2.91764,2.91764,0,0,1-2.15968-.85671,2.99192,2.99192,0,0,1-.85144-2.20446,3.1889,3.1889,0,0,1,.93574-2.40678,5.45137,5.45137,0,0,1,3.343-1.08959,13.27068,13.27068,0,0,0,2.714-.4057,3.50578,3.50578,0,0,0,.17861-.95154.95445.95445,0,0,0-.36671-.76187,1.658,1.658,0,0,0-1.08959-.3077,2.05294,2.05294,0,0,0-1.20339.31191A1.54943,1.54943,0,0,0,99.32408,144.0362Zm2.70394,2.6344a5.6825,5.6825,0,0,1-.68336.12856,6.485,6.485,0,0,0-2.79351.75344,1.14524,1.14524,0,0,0-.46523.96,1.11472,1.11472,0,0,0,.35617.83774,1.305,1.305,0,0,0,.941.34142,2.49049,2.49049,0,0,0,1.2134-.31191,2.132,2.132,0,0,0,.852-.803,5.48251,5.48251,0,0,0,.50054-1.53006Z" transform="translate(-22.88869 -9.55908)" fill="#fff"/><path d="M108.62982,141.05407h2.69446l-.27714,1.36672a7.41326,7.41326,0,0,1,1.88675-1.24238,4.68661,4.68661,0,0,1,1.84724-.372,2.7739,2.7739,0,0,1,2.04534.7429,2.65442,2.65442,0,0,1,.74817,1.97158,12.47821,12.47821,0,0,1-.32719,2.10014l-1.23817,5.95268h-2.84251l1.24818-5.9727a13.19443,13.19443,0,0,0,.27714-1.59539,1.14012,1.14012,0,0,0-.32192-.85671,1.23593,1.23593,0,0,0-.89622-.31191,2.51613,2.51613,0,0,0-1.38675.52477,3.65321,3.65321,0,0,0-1.19865,1.38675,11.74144,11.74144,0,0,0-.71339,2.50689l-.90149,4.3183h-2.84251Z" transform="translate(-22.88869 -9.55908)" fill="#fff"/><path d="M135.00855,151.57374h-2.67444l-.51529-6.69558-3.20922,6.69558h-2.63492l-1.3172-10.51967h2.52586l.73289,7.0528,3.27877-7.0528h2.58487l.3567,7.0528,3.25875-7.0528h2.85305Z" transform="translate(-22.88869 -9.55908)" fill="#fff"/><path d="M142.47179,151.57374h-2.84251l3.04062-14.52079h2.843l-1.08959,5.16974a7.48072,7.48072,0,0,1,1.793-1.08432,4.77178,4.77178,0,0,1,1.783-.33193,2.75225,2.75225,0,0,1,2.02111.73342,2.57788,2.57788,0,0,1,.74185,1.921,10.81206,10.81206,0,0,1-.27608,1.9621l-1.28769,6.15079h-2.84357l1.31772-6.26986a8.85146,8.85146,0,0,0,.20759-1.30771,1.11911,1.11911,0,0,0-.32667-.84194,1.22938,1.22938,0,0,0-.89148-.31719,2.23607,2.23607,0,0,0-1.36725.49527,4.29789,4.29789,0,0,0-1.29718,1.60487,14.32006,14.32006,0,0,0-.65386,2.46685Z" transform="translate(-22.88869 -9.55908)" fill="#fff"/><path d="M155.78971,144.0362l-2.77349-.23815a4.17533,4.17533,0,0,1,1.65862-2.19919,5.55235,5.55235,0,0,1,3.13493-.79243,4.59923,4.59923,0,0,1,3.00216.81772,2.51618,2.51618,0,0,1,.97051,1.99582,6.55336,6.55336,0,0,1-.0843,1.01055q-.08377.53426-.58905,2.81248a14.37035,14.37035,0,0,0-.41623,2.63545,5.44053,5.44053,0,0,0,.2371,1.49528h-2.763a5.42,5.42,0,0,1-.20864-1.18864,4.34437,4.34437,0,0,1-1.43627,1.06535,3.9146,3.9146,0,0,1-1.63438.37092,2.91726,2.91726,0,0,1-2.15915-.85671,2.99192,2.99192,0,0,1-.85144-2.20446,3.1889,3.1889,0,0,1,.93574-2.40678,5.45056,5.45056,0,0,1,3.34357-1.08959,13.27022,13.27022,0,0,0,2.71343-.4057,3.50136,3.50136,0,0,0,.17809-.95154.95652.95652,0,0,0-.36565-.76187,1.65892,1.65892,0,0,0-1.08959-.3077,2.05537,2.05537,0,0,0-1.20445.31191A1.55367,1.55367,0,0,0,155.78971,144.0362Zm2.70394,2.6344a5.6737,5.6737,0,0,1-.68389.12856,6.47893,6.47893,0,0,0-2.79246.75344,1.14433,1.14433,0,0,0-.46576.96,1.11663,1.11663,0,0,0,.35617.83774,1.30411,1.30411,0,0,0,.941.34142,2.49692,2.49692,0,0,0,1.21393-.31191,2.13735,2.13735,0,0,0,.85144-.803,5.46514,5.46514,0,0,0,.50054-1.53006Z" transform="translate(-22.88869 -9.55908)" fill="#fff"/><path d="M163.57067,143.16369l.4352-2.10962h1.38675l.34669-1.68391,3.25927-1.961-.76292,3.64495h1.73343l-.43626,2.10962h-1.74292l-.921,4.40787a13.64354,13.64354,0,0,0-.24763,1.36778.6471.6471,0,0,0,.20759.51,1.16169,1.16169,0,0,0,.75344.18335c.1254,0,.43836-.02318.941-.06955l-.44574,2.10962a7.56275,7.56275,0,0,1-1.50582.14858,3.35953,3.35953,0,0,1-2.18971-.57957,1.99778,1.99778,0,0,1-.68284-1.60909,15.05171,15.05171,0,0,1,.36671-2.23924l.88094-4.22979Z" transform="translate(-22.88869 -9.55908)" fill="#fff"/><path d="M175.72471,141.05407h2.83356l.71339,5.24034q.26713,2.02005.29716,2.8325a22.61559,22.61559,0,0,1,1.52479-3.4068l2.51637-4.666h3.01059l-6.49747,11.55024a16.14729,16.14729,0,0,1-1.26346,2.01057,3.33021,3.33021,0,0,1-1.10855.901,3.43367,3.43367,0,0,1-1.56062.32666,7.621,7.621,0,0,1-2.03059-.31613l.24763-2.12016a3.60206,3.60206,0,0,0,1.00107.14858q1.30719,0,2.14861-1.98107Z" transform="translate(-22.88869 -9.55908)" fill="#fff"/><path d="M186.34027,147.20591a6.49028,6.49028,0,0,1,1.64913-4.66077,5.69611,5.69611,0,0,1,4.33305-1.7387,4.96666,4.96666,0,0,1,3.63547,1.28348,4.614,4.614,0,0,1,1.30771,3.45106,6.47786,6.47786,0,0,1-1.63438,4.41841,5.534,5.534,0,0,1-4.37837,1.862,5.64868,5.64868,0,0,1-2.6344-.59432,3.88545,3.88545,0,0,1-1.71446-1.68391A5.00848,5.00848,0,0,1,186.34027,147.20591Zm8.10235-2.03059a2.23222,2.23222,0,0,0-.58905-1.61963,2.02027,2.02027,0,0,0-1.52057-.60907,2.54687,2.54687,0,0,0-1.63438.569A3.65433,3.65433,0,0,0,189.589,145.17a5.84976,5.84976,0,0,0-.39621,1.99582,2.53193,2.53193,0,0,0,.61434,1.79244,2.014,2.014,0,0,0,1.54481.66387,2.41219,2.41219,0,0,0,1.961-1A5.35369,5.35369,0,0,0,194.44262,145.17532Z" transform="translate(-22.88869 -9.55908)" fill="#fff"/><path d="M200.291,141.05407h2.843l-1.29823,6.23087a9.81015,9.81015,0,0,0-.2371,1.39623,1.05193,1.05193,0,0,0,.33615.78294,1.18566,1.18566,0,0,0,.862.32666,2.01871,2.01871,0,0,0,.7429-.14331,3.18386,3.18386,0,0,0,.75238-.43626,4.00172,4.00172,0,0,0,.69337-.66808,4.27248,4.27248,0,0,0,.57535-.99053,9.43664,9.43664,0,0,0,.4057-1.4858l1.04954-5.01273h2.843l-2.1992,10.51967h-2.65441l.29716-1.42679a5.38579,5.38579,0,0,1-3.79353,1.67442,2.75624,2.75624,0,0,1-2.04008-.7429,2.69057,2.69057,0,0,1-.7429-1.99055,13.48648,13.48648,0,0,1,.33615-2.16969Z" transform="translate(-22.88869 -9.55908)" fill="#fff"/><path d="M216.4472,143.16369l.4352-2.10962h1.38675l.34669-1.68391,3.25927-1.961-.76292,3.64495h1.73343l-.43626,2.10962h-1.74292l-.921,4.40787a13.64352,13.64352,0,0,0-.24763,1.36778.6471.6471,0,0,0,.20759.51,1.16169,1.16169,0,0,0,.75344.18335c.1254,0,.43836-.02318.941-.06955l-.44574,2.10962a7.56275,7.56275,0,0,1-1.50582.14858,3.35953,3.35953,0,0,1-2.18971-.57957,1.99778,1.99778,0,0,1-.68284-1.60909,15.05171,15.05171,0,0,1,.36671-2.23924l.88094-4.22979Z" transform="translate(-22.88869 -9.55908)" fill="#fff"/><path d="M225.16916,151.57374h-2.843l3.04115-14.52079h2.843l-1.08959,5.16974a7.48872,7.48872,0,0,1,1.79244-1.08432,4.77178,4.77178,0,0,1,1.783-.33193,2.75059,2.75059,0,0,1,2.02111.73342,2.5786,2.5786,0,0,1,.7429,1.921,10.74142,10.74142,0,0,1-.27714,1.9621l-1.28769,6.15079h-2.843l1.3172-6.26986a8.91177,8.91177,0,0,0,.20864-1.30771,1.11982,1.11982,0,0,0-.32772-.84194,1.226,1.226,0,0,0-.89148-.31719,2.23577,2.23577,0,0,0-1.36672.49527,4.29789,4.29789,0,0,0-1.29718,1.60487,14.30271,14.30271,0,0,0-.65438,2.46685Z" transform="translate(-22.88869 -9.55908)" fill="#fff"/><path d="M236.67409,141.05407h2.842l-2.19814,10.51967h-2.843Zm.83142-4.00112h2.843l-.53531,2.57539h-2.842Z" transform="translate(-22.88869 -9.55908)" fill="#fff"/><path d="M242.14731,141.05407h2.69446l-.27714,1.36672a7.42051,7.42051,0,0,1,1.88623-1.24238,4.68984,4.68984,0,0,1,1.84829-.372,2.77721,2.77721,0,0,1,2.04534.7429,2.65579,2.65579,0,0,1,.7471,1.97158,12.45854,12.45854,0,0,1-.32665,2.10014l-1.23817,5.95268h-2.843l1.2487-5.9727a13.19444,13.19444,0,0,0,.27714-1.59539,1.13843,1.13843,0,0,0-.32245-.85671,1.23376,1.23376,0,0,0-.89569-.31191,2.51473,2.51473,0,0,0-1.38675.52477,3.659,3.659,0,0,0-1.19918,1.38675,11.75934,11.75934,0,0,0-.71234,2.50689l-.902,4.3183h-2.843Z" transform="translate(-22.88869 -9.55908)" fill="#fff"/><path d="M252.04737,151.57374l3.04115-14.52079h2.842l-1.58485,7.55755,3.705-3.55643h3.69448l-4.22979,3.82409,2.24872,6.69558h-2.843l-1.44576-4.86309-1.92206,1.70287-.66281,3.16022Z" transform="translate(-22.88869 -9.55908)" fill="#fff"/><path d="M264.8291,148.82813h2.81348l-.57422,2.74414h-2.81348Z" transform="translate(-22.88869 -9.55908)" fill="#fff"/><rect x="61.61131" y="43.44092" width="4.375" height="9.5" fill="#fff"/></svg>